<svg height="512" viewBox="0 0 64 64" width="512" xmlns="http://www.w3.org/2000/svg" xmlns:xlink="http://www.w3.org/1999/xlink"><linearGradient id="linear-gradient" gradientUnits="userSpaceOnUse" x1="1" x2="61.208" y1="19" y2="19"><stop offset="0" stop-color="#ef7ec0"/><stop offset=".21" stop-color="#ef72a8"/><stop offset=".651" stop-color="#ef556b"/><stop offset="1" stop-color="#ef3b36"/></linearGradient><linearGradient id="linear-gradient-3" x2="61.208" xlink:href="#linear-gradient" y1="17" y2="17"/><linearGradient id="linear-gradient-5" x2="61.208" xlink:href="#linear-gradient" y1="21" y2="21"/><linearGradient id="linear-gradient-7" x2="61.208" xlink:href="#linear-gradient" y1="32" y2="32"/><linearGradient id="linear-gradient-8" x2="61.208" xlink:href="#linear-gradient" y1="38" y2="38"/><linearGradient id="linear-gradient-9" x2="61.208" xlink:href="#linear-gradient" y1="35.761" y2="35.761"/><linearGradient id="linear-gradient-10" x2="61.208" xlink:href="#linear-gradient" y1="41.2" y2="41.2"/><linearGradient id="linear-gradient-12" x2="61.208" xlink:href="#linear-gradient" y1="36" y2="36"/><linearGradient id="linear-gradient-13" x2="61.208" xlink:href="#linear-gradient" y1="40" y2="40"/><linearGradient id="linear-gradient-14" x2="61.208" xlink:href="#linear-gradient" y1="47" y2="47"/><g id="Gradient_outline" data-name="Gradient outline"><path d="m58 16h-12v6h12zm-2 4h-8v-2h8z" fill="url(#linear-gradient)"/><path d="m40 16h-12v6h12zm-2 4h-8v-2h8z" fill="url(#linear-gradient)"/><path d="m24 16h2v2h-2z" fill="url(#linear-gradient-3)"/><path d="m42 16h2v2h-2z" fill="url(#linear-gradient-3)"/><path d="m24 20h2v2h-2z" fill="url(#linear-gradient-5)"/><path d="m6 20h8v2h-8z" fill="url(#linear-gradient-5)"/><path d="m61 12h-39a1 1 0 0 0 -.707.293l-3.707 3.707h-1.586v-3a1 1 0 0 0 -1-1h-10a1 1 0 0 0 -1 1v3h-1a1 1 0 0 0 -1 1v34a1 1 0 0 0 1 1h58a1 1 0 0 0 1-1v-38a1 1 0 0 0 -1-1zm-55 2h8v2h-8zm-2 4h14a1 1 0 0 0 .707-.293l3.707-3.707h37.586v10h-38.184a2.966 2.966 0 0 0 .184-1 3 3 0 0 0 -6 0 2.966 2.966 0 0 0 .184 1h-12.184zm14 5a1 1 0 1 1 1 1 1 1 0 0 1 -1-1zm17 27h-31v-2h20v-2h-20v-20h56v20h-10v2h10v2z" fill="url(#linear-gradient-7)"/><path d="m47 38a12 12 0 1 0 -12 12 12.013 12.013 0 0 0 12-12zm-12 10a10 10 0 1 1 10-10 10.011 10.011 0 0 1 -10 10z" fill="url(#linear-gradient-8)"/><path d="m24.733 28.482-1.466-1.36a16.014 16.014 0 0 0 -2.935 17.278l1.832-.8a14.019 14.019 0 0 1 2.569-15.118z" fill="url(#linear-gradient-9)"/><path d="m49 38a13.916 13.916 0 0 1 -1.164 5.6l1.832.8a15.878 15.878 0 0 0 1.332-6.4z" fill="url(#linear-gradient-10)"/><path d="m35 30a8 8 0 1 0 8 8 8.009 8.009 0 0 0 -8-8zm0 14a6 6 0 1 1 6-6 6.006 6.006 0 0 1 -6 6z" fill="url(#linear-gradient-8)"/><path d="m35 34a4 4 0 0 0 -4 4h2a2 2 0 0 1 2-2z" fill="url(#linear-gradient-12)"/><path d="m35 40v2a4 4 0 0 0 4-4h-2a2 2 0 0 1 -2 2z" fill="url(#linear-gradient-13)"/><path d="m46 46h2v2h-2z" fill="url(#linear-gradient-14)"/></g></svg>